<svg xmlns="http://www.w3.org/2000/svg" version="1.1" xmlns:xlink="http://www.w3.org/1999/xlink" xmlns:svgjs="http://svgjs.dev/svgjs" width="1500" height="1500" viewBox="0 0 1500 1500"><rect width="1500" height="1500" fill="#ffffff"></rect><g transform="matrix(0.6666666666666666,0,0,0.6666666666666666,249.50000000000006,249.5000000000001)"><svg viewBox="0 0 280 280" data-background-color="#ffffff" preserveAspectRatio="xMidYMid meet" height="1500" width="1500" xmlns="http://www.w3.org/2000/svg" xmlns:xlink="http://www.w3.org/1999/xlink"><g id="tight-bounds" transform="matrix(1,0,0,1,0.13999999999998636,0.13999999999998636)"><svg viewBox="0 0 279.72 279.72" height="279.72" width="279.72"><g><svg viewBox="0 0 279.72 279.72" height="279.72" width="279.72"><g><svg viewBox="0 0 279.72 279.72" height="279.72" width="279.72"><g id="textblocktransform"><svg viewBox="0 0 279.72 279.72" height="279.72" width="279.72" id="textblock"><g><svg viewBox="0 0 279.72 279.72" height="279.72" width="279.72"><g transform="matrix(1,0,0,1,73.92936372216631,73.9659026329424)"><svg viewBox="0 0 131.8612725556674 131.78819473411522" height="131.78819473411522" width="131.8612725556674"><g id="icon-0"><svg xmlns="http://www.w3.org/2000/svg" data-name="Layer 3" viewBox="0.9552632564545118 0.9896485927410578 62.044736743545485 62.010351407258945" x="0" y="0" height="131.78819473411522" width="131.8612725556674" class="icon-jxe-0" data-fill-palette-color="accent" id="jxe-0"><path d="M23.092 22.092A5 5 0 0 0 19.092 27.937 5 5 0 0 0 19.092 36.063 4.994 4.994 0 0 0 23.092 41.908 4.976 4.976 0 0 0 32 43.969 4.976 4.976 0 0 0 40.908 41.908 5 5 0 0 0 44.908 36.063 5 5 0 0 0 44.908 27.938 4.995 4.995 0 0 0 40.908 22.092 4.976 4.976 0 0 0 32 20.031 4.976 4.976 0 0 0 23.092 22.092M36 20A2.99 2.99 0 0 1 38.86 22.143 5 5 0 0 0 35 27H37A3 3 0 1 1 42.811 28.052 1 1 0 0 0 43.311 29.301 3 3 0 0 1 43.311 34.701 1 1 0 0 0 42.811 35.951 3 3 0 1 1 37 37H35A5 5 0 0 0 38.86 41.857 2.991 2.991 0 0 1 33 41V23A3 3 0 0 1 36 20M28 20A3 3 0 0 1 31 23V41A2.991 2.991 0 0 1 25.14 41.857 5 5 0 0 0 29 37H27A3 3 0 1 1 21.189 35.948 1 1 0 0 0 20.689 34.699 3 3 0 0 1 20.689 29.299 1 1 0 0 0 21.189 28.049 3 3 0 1 1 27 27H29A5 5 0 0 0 25.14 22.143 2.99 2.99 0 0 1 28 20" fill="#8a8d56" data-fill-palette-color="accent"></path><path d="M58 27A4.97 4.97 0 0 0 55.247 27.833L51 23.586V16.816A2.993 2.993 0 1 0 47.184 13H40.414L36.167 8.753A5 5 0 1 0 27.833 8.753L23.586 13H16.816A2.993 2.993 0 1 0 13 16.816V23.586L8.753 27.833A5.008 5.008 0 1 0 8.105 36.519L13 41.414V47.184A2.993 2.993 0 1 0 16.816 51H22.586L27.486 55.9A4.9 4.9 0 0 0 27 58 5 5 0 0 0 37 58 4.9 4.9 0 0 0 36.519 55.9L41.419 51H47.189A2.993 2.993 0 1 0 51 47.184V41.414L55.9 36.514A4.9 4.9 0 0 0 58 37 5 5 0 0 0 58 27M50 13A1 1 0 1 1 49 14 1 1 0 0 1 50 13M47.184 15A3 3 0 0 0 49 16.816V21.586L42.414 15ZM49 24.414V40.586L40.586 49H23.414L15 40.586V24.414L24.414 15H39.586ZM32 3A3 3 0 1 1 29 6 3 3 0 0 1 32 3M29.247 10.167A4.97 4.97 0 0 0 34.753 10.167L37.586 13H26.414ZM14 13A1 1 0 1 1 13 14 1 1 0 0 1 14 13M15 16.816A3 3 0 0 0 16.816 15H21.586L15 21.586ZM3 32A3 3 0 1 1 6 35 3 3 0 0 1 3 32M9.721 35.307A4.94 4.94 0 0 0 10.167 29.247L13 26.414V38.586ZM14 51A1 1 0 1 1 15 50 1 1 0 0 1 14 51M16.816 49A3 3 0 0 0 15 47.184V43.414L20.586 49ZM32 61A3 3 0 1 1 35 58 3 3 0 0 1 32 61M35.307 54.279A4.915 4.915 0 0 0 28.693 54.279L25.414 51H38.586ZM50 51A1 1 0 1 1 51 50 1 1 0 0 1 50 51M49 47.184A3 3 0 0 0 47.184 49H43.414L49 43.414ZM51 26.414L53.833 29.247A4.94 4.94 0 0 0 54.279 35.307L51 38.586ZM58 35A3 3 0 0 1 55 32 2.96 2.96 0 0 1 55.319 30.681L56.681 29.319A2.96 2.96 0 0 1 58 29 3 3 0 0 1 58 35" fill="#8a8d56" data-fill-palette-color="accent"></path><path d="M23.707 29.293L22.293 30.707A7.77 7.77 0 0 0 27.827 33H29V31H27.827A5.87 5.87 0 0 1 23.707 29.293" fill="#8a8d56" data-fill-palette-color="accent"></path><path d="M41.707 30.707L40.293 29.293A5.87 5.87 0 0 1 36.173 31H35V33H36.173A7.77 7.77 0 0 0 41.707 30.707" fill="#8a8d56" data-fill-palette-color="accent"></path></svg></g></svg></g><g id="text-0"><path d="M21.27 90.15l-1.175 3.315-2.12-0.752 2.472-6.976 2.12 0.752-0.533 1.503 9.356 3.315c-0.001 0.491-0.214 1.725-0.638 3.7-0.423 1.969-0.844 3.544-1.263 4.726-0.419 1.182-0.867 2.18-1.343 2.994-0.477 0.814-1.158 1.614-2.044 2.4-0.886 0.785-1.891 1.358-3.016 1.718-1.128 0.367-2.541 0.509-4.241 0.428-1.706-0.084-3.586-0.49-5.641-1.219v0c-4.541-1.609-7.715-3.906-9.522-6.888v0c-1.894-3.122-2.172-6.572-0.833-10.349v0c0.407-1.15 0.959-2.36 1.656-3.632 0.696-1.272 1.248-2.154 1.654-2.646v0l5.704 1.501-0.4 1.984-4.344-0.932c-0.943 1.517-1.672 3.004-2.188 4.462v0c-1.029 2.903-0.768 5.584 0.782 8.043 1.56 2.454 4.366 4.4 8.42 5.836v0c1.747 0.619 3.34 0.981 4.777 1.086 1.436 0.111 2.603 0.03 3.503-0.244 0.906-0.272 1.701-0.72 2.386-1.346v0c1.131-0.987 1.992-2.316 2.584-3.986 0.59-1.664 1.104-3.647 1.544-5.949v0z" fill="#fbb04b" data-fill-palette-color="primary"></path><path d="M50.125 50.751v0c1.649 1.779 3.354 2.601 5.115 2.465 1.77-0.136 3.335-0.833 4.694-2.093v0c0.88-0.815 1.705-1.739 2.477-2.771 0.767-1.027 1.236-1.75 1.406-2.167v0l1.697 1.048c-0.182 0.726-0.702 1.673-1.562 2.841-0.864 1.173-1.731 2.162-2.601 2.969-0.87 0.806-1.733 1.439-2.589 1.898-0.856 0.459-1.855 0.791-2.996 0.993-1.146 0.207-2.383 0.016-3.711-0.574-1.323-0.585-2.643-1.588-3.958-3.007v0c-2.446-2.639-3.636-5.286-3.57-7.941v0c0.062-2.771 1.032-5.027 2.911-6.768 1.879-1.742 3.793-2.55 5.742-2.423 1.953 0.122 3.799 1.12 5.536 2.994v0c0.371 0.4 0.739 0.857 1.105 1.373v0l-10.69 9.91c0.329 0.475 0.661 0.893 0.994 1.253zM56.722 39.673v0c-1.149-1.239-2.399-1.851-3.75-1.834-1.361 0.016-2.531 0.478-3.51 1.386v0c-1.339 1.242-2.074 2.675-2.203 4.3-0.134 1.62 0.199 3.157 0.997 4.609v0l8.772-8.131c-0.111-0.12-0.213-0.23-0.306-0.33z" fill="#fbb04b" data-fill-palette-color="primary"></path><path d="M98.302 11.15l-2.643 0.721-0.538-1.973 5.198-1.417 0.602 2.21c1.755-2.061 3.608-3.399 5.559-4.016v0c1.913-0.522 3.474-0.537 4.681-0.047v0c0.54 0.22 1.087 0.643 1.639 1.27 0.552 0.626 0.964 1.436 1.234 2.429v0l3.417 12.535 3.037-0.828 0.538 1.973-7.959 2.169-0.538-1.972 2.357-0.643-3.148-11.549c-0.694-2.545-2.536-3.409-5.527-2.594v0c-1.616 0.497-3.218 1.513-4.806 3.048v0l3.747 13.748 2.959-0.806 0.537 1.972-7.959 2.17-0.537-1.973 2.446-0.666z" fill="#fbb04b" data-fill-palette-color="primary"></path><path d="M185.168 31.593l-7.951-2.196 0.598-2.168 2.404 0.664-0.4-5.614-12.13-3.35-3.186 4.624 2.838 0.784-0.599 2.168-7.952-2.196 0.599-2.168 2.601 0.718 16.186-22.859 2.395 0.661 2.486 28.016 2.71 0.748zM179.653 20.112l-1.237-16.832-9.513 13.863z" fill="#fbb04b" data-fill-palette-color="primary"></path><path d="M236.608 33.591l-2.014-1.796 1.496-1.678 6.158 5.49-1.496 1.678-2.076-1.85-16.034 17.984 2.075 1.851-1.496 1.678-6.158-5.489 1.497-1.679 2.014 1.796z" fill="#fbb04b" data-fill-palette-color="primary"></path><path d="M275.247 91.017l-0.833-2.034 2.081-0.852 3.001 7.332-2.081 0.852-0.991-2.422-13.491-3.436-8.095 14.304 1.177 2.876-2.082 0.852-0.495-1.211-1.231-2.898 9.391-16.646zM273.206 86.032l-1.069-2.612-22.299 9.128 1.069 2.611-2.081 0.852-3.125-7.635 2.081-0.852 1.007 2.46 22.299-9.127-1.007-2.46 2.081-0.852 3.125 7.635z" fill="#fbb04b" data-fill-palette-color="primary"></path><path d="M0.224 142.011c0-6.032 4.89-10.922 10.922-10.922 6.032 0 10.922 4.89 10.922 10.922 0 6.032-4.89 10.922-10.922 10.922-6.032 0-10.922-4.89-10.922-10.922z" fill="#fbb04b" data-fill-palette-color="primary"></path><path d="M257.576 142.011c0-6.032 4.89-10.922 10.922-10.922 6.032 0 10.922 4.89 10.922 10.922 0 6.032-4.89 10.922-10.922 10.922-6.032 0-10.922-4.89-10.922-10.922z" fill="#fbb04b" data-fill-palette-color="primary"></path></g><g id="text-1"><path d="M22.349 193.489l-1.174-3.315 2.119-0.751 2.473 6.976-2.12 0.751-0.533-1.503-9.356 3.316c-0.309-0.382-0.92-1.474-1.833-3.276-0.913-1.802-1.578-3.291-1.995-4.466-0.419-1.182-0.7-2.239-0.842-3.173-0.143-0.933-0.117-1.983 0.076-3.15 0.194-1.168 0.614-2.246 1.262-3.234 0.639-0.993 1.647-1.994 3.024-3.003 1.378-1.009 3.094-1.878 5.15-2.606v0c4.541-1.609 8.448-1.826 11.721-0.651v0c3.446 1.237 5.837 3.741 7.174 7.512v0c0.41 1.156 0.744 2.447 1.004 3.873 0.26 1.426 0.387 2.459 0.382 3.097v0l-5.377 2.426-0.939-1.793 3.962-2.011c-0.223-1.772-0.594-3.39-1.113-4.855v0c-1.027-2.897-2.916-4.812-5.67-5.745-2.757-0.924-6.162-0.668-10.215 0.768v0c-1.747 0.619-3.213 1.338-4.399 2.155-1.183 0.824-2.041 1.627-2.573 2.409-0.526 0.779-0.858 1.627-0.996 2.544v0c-0.257 1.479-0.089 3.054 0.502 4.724 0.59 1.664 1.438 3.528 2.547 5.594v0z" fill="#fbb04b" data-fill-palette-color="secondary"></path><path d="M48.68 234.83v0c-1.649 1.779-2.34 3.541-2.071 5.286 0.269 1.755 1.083 3.262 2.442 4.523v0c0.88 0.815 1.86 1.567 2.943 2.253 1.087 0.692 1.845 1.107 2.275 1.245v0l-0.917 1.771c-0.738-0.126-1.724-0.576-2.959-1.349-1.23-0.768-2.28-1.556-3.149-2.362-0.87-0.806-1.566-1.619-2.089-2.438-0.523-0.819-0.931-1.792-1.224-2.919-0.288-1.122-0.189-2.368 0.3-3.737 0.484-1.364 1.383-2.755 2.699-4.175v0c2.442-2.634 4.991-4.02 7.647-4.159v0c2.767-0.148 5.09 0.649 6.97 2.39 1.874 1.737 2.824 3.585 2.85 5.542 0.026 1.957-0.83 3.872-2.567 5.746v0c-0.371 0.4-0.799 0.802-1.286 1.207v0l-10.69-9.911c-0.449 0.364-0.841 0.726-1.174 1.087zM60.225 240.57v0c1.144-1.234 1.657-2.529 1.538-3.885-0.114-1.351-0.661-2.48-1.64-3.388v0c-1.339-1.242-2.824-1.865-4.454-1.872-1.63-0.006-3.14 0.44-4.528 1.337v0l8.778 8.138c0.111-0.12 0.213-0.23 0.306-0.33z" fill="#fbb04b" data-fill-palette-color="secondary"></path><path d="M102.589 257.108l-2.634-0.718 0.538-1.972 5.198 1.416-0.603 2.21c2.558-0.885 4.834-1.098 6.829-0.64v0c1.913 0.522 3.266 1.3 4.057 2.335v0c0.354 0.464 0.61 1.106 0.768 1.926 0.158 0.82 0.101 1.73-0.172 2.729v0l-3.414 12.526 3.038 0.827-0.538 1.973-7.969-2.172 0.538-1.973 2.367 0.646 3.148-11.55c0.694-2.545-0.456-4.225-3.448-5.04v0c-1.645-0.392-3.541-0.329-5.687 0.188v0l-3.748 13.748 2.959 0.807-0.538 1.972-7.959-2.169 0.538-1.973 2.436 0.664z" fill="#fbb04b" data-fill-palette-color="secondary"></path><path d="M190.606 272.115l-7.952 2.196-0.599-2.168 2.405-0.664-3.226-4.613-12.129 3.35-0.362 5.603 2.838-0.783 0.599 2.168-7.952 2.195-0.599-2.167 2.601-0.719 2.162-27.926 2.394-0.661 16.502 22.772 2.719-0.751zM179.981 265.091l-9.698-13.802-1.053 16.771z" fill="#fbb04b" data-fill-palette-color="secondary"></path><path d="M215.139 226.348l-2.014 1.796-1.497-1.678 6.158-5.49 1.496 1.678-2.075 1.851 16.034 17.984 2.075-1.85 1.497 1.678-6.158 5.49-1.496-1.678 2.014-1.796z" fill="#fbb04b" data-fill-palette-color="secondary"></path><path d="M245.389 180.781l-0.833 2.034-2.081-0.852 3.001-7.332 2.081 0.852-0.991 2.422 7.219 11.913 15.792-4.527 1.177-2.876 2.082 0.852-0.496 1.211-1.155 2.929-18.357 5.289zM243.348 185.767l-1.069 2.611 22.299 9.127 1.069-2.611 2.081 0.852-3.125 7.634-2.081-0.851 1.007-2.46-22.299-9.127-1.007 2.46-2.081-0.852 3.125-7.635z" fill="#fbb04b" data-fill-palette-color="secondary"></path></g></svg></g></svg></g></svg></g><g></g></svg></g><defs></defs></svg><rect width="279.72" height="279.72" fill="none" stroke="none" visibility="hidden"></rect></g></svg></g></svg>